<?xml version="1.0" encoding="utf-8"?>
<!-- Generator: Adobe Illustrator 24.0.2, SVG Export Plug-In . SVG Version: 6.00 Build 0)  -->
<svg version="1.1" id="Layer_1" xmlns="http://www.w3.org/2000/svg" xmlns:xlink="http://www.w3.org/1999/xlink" x="0px" y="0px"
	 viewBox="0 0 166 140" style="enable-background:new 0 0 166 140;" xml:space="preserve">
<style type="text/css">
	.st0{fill-rule:evenodd;clip-rule:evenodd;fill:#5668C1;}
</style>
<path class="st0" d="M111.2,116h-56V29.2h28.1l-0.1,1.3v52l28-20L111.2,116z M83.2,132c-2.9,0-5.2-2.2-5.2-5.1
	c0-2.9,2.2-5.2,5.1-5.2c2.9,0,5.2,2.2,5.2,5.1c0,0,0,0.1,0,0.1C88.3,129.7,86,132,83.2,132C83.2,132,83.2,132,83.2,132z M157.1,0
	c4.9,0.1,8.9,4.1,8.9,9v43.1c0,4.9-4,8.9-8.9,9h-39.8V140H49V21.6h33.6V9c0-4.9,4-8.9,8.9-9H157.1z M103.6,15.4
	c-5.5,0-8.6,2.6-8.6,8.3c0,4.9,1.8,7.4,7.9,8.2c3.6,0.5,4.8,1.6,4.8,4.3c0,2.5-1,4-4.1,4c-2.9,0-4.1-1.2-4.1-4.3h-4.9
	c0,5.7,1.8,8.8,9,8.8c8.2,0,9-3.9,9-8.1v-0.4c0-5.2-2-7.3-8.7-8.3c-2.8-0.4-4-1.3-4-4c0-2.5,1-4,3.7-4c3.2,0,3.8,2,3.8,4.4h4.9
	C112.3,17.8,110,15.4,103.6,15.4L103.6,15.4z M124.9,15.4c-6.4,0-9.5,2.9-9.5,12.9v3.5c0,10,3,12.9,9.5,12.9c6.5,0,9.5-2.9,9.5-12.9
	v-3.5C134.3,18.2,131.3,15.4,124.9,15.4z M145.9,15.4c-5.5,0-8.6,2.6-8.6,8.3c0,4.9,1.8,7.4,7.9,8.2c3.6,0.5,4.8,1.6,4.8,4.3
	c0,2.5-0.9,4-4.1,4c-2.9,0-4.1-1.2-4.1-4.3h-4.9c0,5.7,1.9,8.8,9,8.8c8.2,0,9-3.9,9-8.1v-0.4c0-5.2-2-7.3-8.7-8.3
	c-2.8-0.4-4-1.3-4-4c0-2.5,1-4,3.7-4c3.2,0,3.8,2,3.8,4.4h4.9C154.5,17.8,152.2,15.4,145.9,15.4L145.9,15.4z M124.9,19.9
	c3.3,0,4.4,1.7,4.4,8.1v4.1c0,6.3-1.1,8.1-4.4,8.1s-4.4-1.7-4.4-8.1v-4.1C120.5,21.6,121.6,19.9,124.9,19.9z"/>
</svg>
