<?xml version="1.0" encoding="utf-8"?>
<!-- Generator: Adobe Illustrator 24.0.2, SVG Export Plug-In . SVG Version: 6.00 Build 0)  -->
<svg version="1.1" id="Layer_1" xmlns="http://www.w3.org/2000/svg" xmlns:xlink="http://www.w3.org/1999/xlink" x="0px" y="0px"
	 viewBox="0 0 166 140" style="enable-background:new 0 0 166 140;" xml:space="preserve">
<style type="text/css">
	.st0{fill:#5668C1;}
</style>
<path class="st0" d="M110.4,101.4v26c0,0-7.2,12.6-38.5,12.6s-38.5-12.6-38.5-12.6v-25.8c12.5,3.9,25.5,5.8,38.5,5.7
	C84.9,107.4,98,105.4,110.4,101.4z M127.7,32.4l27.2,98.2c0.8,2.7-2.1,5.8-6.3,6.9s-8.2-0.2-9-2.9l-27.2-98.2L127.7,32.4z
	 M71.5,46.7c14.3-0.2,28.5,2.3,41.7,7.6l9.3,34.5c-10.7,7.7-29.6,12.7-51.1,12.7C38.1,101.4,11,89.2,11,74.1c0-7,5.7-13.3,15.2-18.1
	l3.1,5.6c1.4,2.4,4.5,3.3,6.9,1.9c0.8-0.5,1.5-1.1,1.9-1.9l5.5-10l5.4-2.9C56.4,47.3,64,46.7,71.5,46.7z M71.5,64.1
	c-20.9,0-37.8,4.5-37.8,10S50.6,84,71.5,84s37.8-4.4,37.8-10S92.4,64.1,71.5,64.1z M32.3,22.3l6.1,11.2l11.1,6.1l-11.2,6.1
	l-6.1,11.1l-6.1-11.2l-11.1-6.1l11.1-6.1L32.3,22.3z M90.1,20.3l3.6,6.6l6.6,3.6L93.7,34l-3.6,6.6L86.5,34L80,30.4l6.6-3.6
	L90.1,20.3z M110.8,0.4c4.2-1.1,8.3,0.2,9,3l6.8,25l-15.3,4l-6.8-25C103.7,4.6,106.5,1.5,110.8,0.4z M62.7,0l4.7,8.5l8.5,4.7
	l-8.5,4.7l-4.7,8.5l-4.7-8.5l-8.5-4.7l8.5-4.7L62.7,0z"/>
</svg>
