<?xml version="1.0" encoding="utf-8"?>
<!-- Generator: Adobe Illustrator 24.0.2, SVG Export Plug-In . SVG Version: 6.00 Build 0)  -->
<svg version="1.1" id="Layer_1" xmlns="http://www.w3.org/2000/svg" xmlns:xlink="http://www.w3.org/1999/xlink" x="0px" y="0px"
	 viewBox="0 0 166 140" style="enable-background:new 0 0 166 140;" xml:space="preserve">
<style type="text/css">
	.st0{fill-rule:evenodd;clip-rule:evenodd;fill:#5668C1;}
</style>
<path class="st0" d="M83,0c28.2,0.1,51,22.9,51,51.1c0,17-15.7,43.9-22.5,54.7c-5.1,8.2-10.7,16.1-16.7,23.7
	c-8.1,10-10.6,10.5-11.6,10.5h-0.4c-1.2-0.1-3.9-0.9-11.6-10.4c-6-7.6-11.6-15.5-16.7-23.7C47.6,95.1,32,68.2,32,51.1
	C32,22.9,54.8,0.1,83,0z M99.4,22H65.6c-2.9,0.1-5.5,1.9-6.8,4.5l-3.6,8.8l-3.4-1c-0.3-0.1-0.6-0.1-0.9-0.1c-1.6,0-2.8,1.2-2.8,2.8
	c0,0.1,0,0.2,0,0.2v2c0,2,1.6,3.7,3.7,3.7c0,0,0,0,0,0h0.4l-0.6,1.4C50.4,47,49.8,50,49.8,53v17.4c0,2,1.7,3.6,3.7,3.6h4.8
	c2,0,3.6-1.6,3.7-3.6V66h41.2v4.3c0,2,1.6,3.7,3.7,3.7c0,0,0,0,0,0h4.8c2,0,3.7-1.6,3.7-3.6V53c-0.1-3-0.7-5.9-1.7-8.7l-0.6-1.4h0.4
	c2,0,3.7-1.6,3.7-3.6c0,0,0,0,0-0.1v-2c0.1-1.5-1.1-2.9-2.6-3c-0.1,0-0.2,0-0.2,0c-0.3,0-0.6,0-0.9,0.1l-3.5,1l-3.6-8.8
	C104.9,23.9,102.3,22.2,99.4,22z M106.7,51.2c0.8,0,1.5,0.6,1.5,1.4c0,0,0,0,0,0v5c0,0.8-0.7,1.5-1.5,1.5H96.3
	c-0.8,0-1.5-0.7-1.5-1.5v-5c0-0.8,0.7-1.5,1.5-1.5H106.7z M68.6,51.2c0.8,0,1.4,0.7,1.4,1.5v5c0,0.8-0.7,1.5-1.5,1.5H58.2
	c-0.8,0-1.5-0.7-1.5-1.5v-5c0-0.8,0.7-1.5,1.5-1.5c0,0,0,0,0,0H68.6z M97.6,24.9c1.7,0.1,3.3,1.1,4,2.7l5.5,13.2
	c0.5,0.9,0.2,2-0.7,2.5c-0.3,0.2-0.7,0.3-1.1,0.2H59.7c-1,0.1-1.9-0.6-2-1.6c0-0.4,0-0.8,0.2-1.1l5.5-13.2c0.7-1.6,2.3-2.6,4.1-2.7
	H97.6z"/>
</svg>
